<svg width="520" height="160" viewBox="0 0 520 160" fill="none" xmlns="http://www.w3.org/2000/svg">
  <defs>
    <linearGradient id="rocketGradient" x1="80" y1="20" x2="80" y2="120" gradientUnits="userSpaceOnUse">
      <stop offset="0%" stop-color="#6366f1"/>
      <stop offset="100%" stop-color="#ec4899"/>
    </linearGradient>

    <linearGradient id="flameGradient" x1="80" y1="108" x2="80" y2="140" gradientUnits="userSpaceOnUse">
      <stop offset="0%" stop-color="#ec4899"/>
      <stop offset="100%" stop-color="#22c55e"/>
    </linearGradient>
  </defs>

  <circle cx="80" cy="80" r="54" fill="#1e293b"/>

  <path d="M48 60 C38 60 34 70 40 80 C34 90 38 100 48 100"
        stroke="#6366f1"
        stroke-width="6"
        stroke-linecap="round"
        stroke-linejoin="round"/>

  <path d="M112 60 C122 60 126 70 120 80 C126 90 122 100 112 100"
        stroke="#6366f1"
        stroke-width="6"
        stroke-linecap="round"
        stroke-linejoin="round"/>

  <path d="M80 24
           C101 40 110 69 106 101
           L96 126
           H64
           L54 101
           C50 69 59 40 80 24Z"
        fill="url(#rocketGradient)"/>

  <path d="M54 100L40 116L56 112L64 126L65 108L54 100Z" fill="#6366f1"/>
  <path d="M106 100L120 116L104 112L96 126L95 108L106 100Z" fill="#6366f1"/>

  <circle cx="80" cy="62" r="10" fill="#e2e8f0"/>
  <circle cx="80" cy="62" r="5" fill="#94a3b8"/>

  <path d="M70 84L63 90L70 96" stroke="#e2e8f0" stroke-width="4.5" stroke-linecap="round" stroke-linejoin="round"/>
  <path d="M90 84L97 90L90 96" stroke="#e2e8f0" stroke-width="4.5" stroke-linecap="round" stroke-linejoin="round"/>
  <path d="M84 81L76 99" stroke="#e2e8f0" stroke-width="4.5" stroke-linecap="round"/>

  <path d="M80 126C90 138 90 149 80 158C70 149 70 138 80 126Z" fill="url(#flameGradient)"/>

  <text x="160" y="78" fill="#e2e8f0" font-size="52" font-weight="700" font-family="Segoe UI, Inter, Arial, sans-serif">Dev</text>
  <text x="260" y="78" fill="#ec4899" font-size="52" font-weight="700" font-family="Segoe UI, Inter, Arial, sans-serif">Quest</text>
  <text x="160" y="116" fill="#94a3b8" font-size="22" font-weight="500" font-family="Segoe UI, Inter, Arial, sans-serif">Launch your coding journey</text>
</svg>
