<svg width="64" height="64" viewBox="0 0 64 64" fill="none" xmlns="http://www.w3.org/2000/svg">
  <defs>
    <linearGradient id="rocketGradient" x1="32" y1="8" x2="32" y2="42" gradientUnits="userSpaceOnUse">
      <stop offset="0%" stop-color="#6366f1"/>
      <stop offset="100%" stop-color="#ec4899"/>
    </linearGradient>

    <linearGradient id="flameGradient" x1="32" y1="40" x2="32" y2="58" gradientUnits="userSpaceOnUse">
      <stop offset="0%" stop-color="#ec4899"/>
      <stop offset="100%" stop-color="#22c55e"/>
    </linearGradient>
  </defs>

  <circle cx="32" cy="32" r="30" fill="#1e293b"/>

  <path d="M14 22
           C9 22 8 27 11 32
           C8 37 9 42 14 42"
        stroke="#6366f1"
        stroke-width="2.8"
        stroke-linecap="round"
        stroke-linejoin="round"/>

  <path d="M50 22
           C55 22 56 27 53 32
           C56 37 55 42 50 42"
        stroke="#6366f1"
        stroke-width="2.8"
        stroke-linecap="round"
        stroke-linejoin="round"/>

  <path d="M32 10
           C39 15 42 25 41 36
           L37 45
           H27
           L23 36
           C22 25 25 15 32 10Z"
        fill="url(#rocketGradient)"/>

  <path d="M23 35L18 40L24 39L27 45L27.5 38L23 35Z" fill="#6366f1"/>
  <path d="M41 35L46 40L40 39L37 45L36.5 38L41 35Z" fill="#6366f1"/>

  <circle cx="32" cy="23" r="3.8" fill="#e2e8f0"/>
  <circle cx="32" cy="23" r="1.8" fill="#94a3b8"/>

  <path d="M28.5 30L26 32.5L28.5 35" stroke="#e2e8f0" stroke-width="1.8" stroke-linecap="round" stroke-linejoin="round"/>
  <path d="M35.5 30L38 32.5L35.5 35" stroke="#e2e8f0" stroke-width="1.8" stroke-linecap="round" stroke-linejoin="round"/>
  <path d="M33.5 28.8L30.8 36.2" stroke="#e2e8f0" stroke-width="1.8" stroke-linecap="round"/>

  <path d="M32 45C36 50 36 54 32 58C28 54 28 50 32 45Z" fill="url(#flameGradient)"/>
</svg>
